# xmcd
#
# Track frame offsets:
#	187
#	16550
#	28987
#	42875
#	55187
#	76100
#	93225
#	110550
#	129625
#	146350
#	163575
#	179250
#	198325
#	219662
#	235262
#	253350
#	269062
#
# Disc length: 3770 seconds
#
# Revision: 1
# Processed by: cddbd v1.5.1PL0 Copyright (c) Steve Scherf et al.
# Submitted via: CDex 1.50Beta5
#
DISCID=ed0eb811
DTITLE=小椋佳 - 風韻
DYEAR=1988
DGENRE=Pop
TTITLE0=うす紅色の
TTITLE1=六月の雨
TTITLE2=雨角へ来ると
TTITLE3=さらば青春
TTITLE4=スタンド・スティル
TTITLE5=揺れるまなざし
TTITLE6=飛べない蝙蝠
TTITLE7=傾いた道しるべ
TTITLE8=時
TTITLE9=グレープジュース飲んだ
TTITLE10=花化粧
TTITLE11=私は北国 津軽の子
TTITLE12=恋,してしまうもの
TTITLE13=忍ぶ草
TTITLE14=泣かせて
TTITLE15=愛しき日々
TTITLE16=夢芝居
EXTD=
EXTT0=
EXTT1=
EXTT2=
EXTT3=
EXTT4=
EXTT5=
EXTT6=
EXTT7=
EXTT8=
EXTT9=
EXTT10=
EXTT11=
EXTT12=
EXTT13=
EXTT14=
EXTT15=
EXTT16=
PLAYORDER=
